<svg xmlns="http://www.w3.org/2000/svg" width="24.909" height="24.958" viewBox="0 0 24.909 24.958">
  <g id="Group_59911" data-name="Group 59911" transform="translate(-630.048 -53.983)">
    <g id="Group_59861" data-name="Group 59861" transform="translate(630.048 53.983)">
      <path id="Path_141259" data-name="Path 141259" d="M496.761,192v1.459h-3.526v3.506h-1.461v-.294q0-2.191,0-4.382c0-.1-.015-.192-.023-.288Z" transform="translate(-491.75 -192)" fill="#fff"/>
      <path id="Path_141260" data-name="Path 141260" d="M802.912,196.972h-1.484v-3.5H797.9V192h5.011Z" transform="translate(-778.003 -192)" fill="#fff"/>
      <path id="Path_141261" data-name="Path 141261" d="M491.75,504.586c.008-.1.023-.192.023-.288q0-2.191,0-4.382v-.294h1.461v3.5h3.526v1.468Z" transform="translate(-491.75 -479.628)" fill="#fff"/>
      <path id="Path_141262" data-name="Path 141262" d="M797.9,504.472v-1.459h3.527V499.5h1.484v4.972Z" transform="translate(-778.003 -479.514)" fill="#fff"/>
      <path id="Path_141263" data-name="Path 141263" d="M555.355,258.19h-2.227v3.07h-2.339v1.846H553.1v1.46h-7.065V263.12H549.3v-3.31h2.334v-5.369h-6.365v-7.859h7.848v2.682h1.689v1.466h-1.675V256.7h2.96v-2.2h1.457v2.2h4.177v-2.058h-1.807v-1.458h1.8v-1.993h-2.546v-1.461h4.006v14.838h-7.824Zm-8.62-10.144v4.906h4.912v-4.906ZM561.729,258.2h-4.9v4.9h4.9Z" transform="translate(-541.794 -243.034)" fill="#fff"/>
      <path id="Path_141264" data-name="Path 141264" d="M551.767,404.124v-1.432h4.211v1.432Z" transform="translate(-547.866 -388.998)" fill="#fff"/>
      <path id="Path_141265" data-name="Path 141265" d="M759.3,248.04v-1.428h4v1.428Z" transform="translate(-741.907 -243.062)" fill="#fff"/>
      <path id="Path_141266" data-name="Path 141266" d="M558.08,451.731h-1.468v-1.44h1.468Z" transform="translate(-552.396 -433.504)" fill="#fff"/>
      <path id="Path_141267" data-name="Path 141267" d="M708.917,247.955h-1.472V246.52h1.472Z" transform="translate(-693.426 -242.977)" fill="#fff"/>
      <path id="Path_141268" data-name="Path 141268" d="M711.705,323.4h1.482v1.432h-1.482Z" transform="translate(-697.409 -314.864)" fill="#fff"/>
      <path id="Path_141271" data-name="Path 141271" d="M595.683,295.448h-1.472v-1.441h1.472Z" transform="translate(-587.552 -287.377)" fill="#fff"/>
      <path id="Path_141272" data-name="Path 141272" d="M747.362,453.327V451.9h1.475v1.431Z" transform="translate(-730.749 -435.004)" fill="#fff"/>
    </g>
  </g>
</svg>
